<svg preserveAspectRatio="none" width="100%" height="100%" overflow="visible" style="display: block;" viewBox="0 0 21 15" fill="none" xmlns="http://www.w3.org/2000/svg">
<g id="Wifi">
<path id="Wifi_2" d="M8.10417 9.79915C9.3908 8.73346 11.2755 8.73356 12.5622 9.79915C12.6268 9.85642 12.6648 9.93743 12.6667 10.0228C12.6684 10.1081 12.634 10.1905 12.5719 10.2503L10.5573 12.2415C10.4983 12.3 10.4176 12.3333 10.3337 12.3333C10.2496 12.3333 10.1691 12.3001 10.11 12.2415L8.0944 10.2503C8.03239 10.1904 7.99783 10.1081 7.99967 10.0228C8.00157 9.93744 8.03949 9.85639 8.10417 9.79915ZM5.43229 6.9349C8.19456 4.35553 12.4718 4.35556 15.234 6.9349C15.2964 6.99538 15.3328 7.07832 15.3337 7.16536C15.3345 7.25231 15.3 7.3361 15.2389 7.39779L14.0788 8.57454C13.9592 8.69474 13.7659 8.69739 13.6432 8.5804C12.7361 7.75584 11.5554 7.29908 10.3317 7.29915C9.10909 7.29977 7.93043 7.75668 7.02409 8.5804C6.90144 8.69739 6.70815 8.69465 6.58854 8.57454L5.42741 7.39779C5.36629 7.33619 5.33289 7.2523 5.33366 7.16536C5.33448 7.07835 5.36997 6.99537 5.43229 6.9349ZM2.76335 4.3138C6.99528 0.33961 13.6721 0.339514 17.904 4.3138C17.9651 4.37274 17.9991 4.45343 17.9997 4.53743C18.0002 4.62163 17.9665 4.70328 17.9059 4.76302L16.7458 5.91048C16.6262 6.02827 16.4316 6.02938 16.3102 5.91341C14.6979 4.41148 12.5582 3.57366 10.3337 3.57357C8.10878 3.57359 5.96865 4.41124 4.35612 5.91341C4.23482 6.02953 4.04106 6.02834 3.92155 5.91048L2.76042 4.76302C2.69991 4.70324 2.6661 4.62163 2.66667 4.53743C2.66733 4.45337 2.70213 4.37272 2.76335 4.3138Z" fill="var(--fill-0, black)"/>
</g>
</svg>
