<svg preserveAspectRatio="none" width="100%" height="100%" overflow="visible" style="display: block;" viewBox="0 0 18 12" fill="none" xmlns="http://www.w3.org/2000/svg">
<g id="Cellular Connection">
<path id="Cellular Connection_2" d="M2.66667 7.33366C3.21895 7.33366 3.66667 7.78137 3.66667 8.33366V10.3337C3.66649 10.8858 3.21884 11.3337 2.66667 11.3337H1.66667C1.11449 11.3337 0.666843 10.8858 0.666667 10.3337V8.33366C0.666667 7.78137 1.11438 7.33366 1.66667 7.33366H2.66667ZM7.33366 5.33366C7.88579 5.33383 8.33366 5.78148 8.33366 6.33366V10.3337C8.33348 10.8857 7.88569 11.3335 7.33366 11.3337H6.33366C5.78148 11.3337 5.33383 10.8858 5.33366 10.3337V6.33366C5.33366 5.78137 5.78137 5.33366 6.33366 5.33366H7.33366ZM11.9997 2.99967C12.5519 2.99967 12.9995 3.44754 12.9997 3.99967V10.3337C12.9995 10.8858 12.5519 11.3337 11.9997 11.3337H10.9997C10.4476 11.3335 9.99985 10.8857 9.99967 10.3337V3.99967C9.99985 3.44765 10.4476 2.99985 10.9997 2.99967H11.9997ZM16.6667 0.666667C17.219 0.666667 17.6667 1.11438 17.6667 1.66667V10.3337C17.6665 10.8858 17.2188 11.3337 16.6667 11.3337H15.6667C15.1145 11.3337 14.6668 10.8858 14.6667 10.3337V1.66667C14.6667 1.11438 15.1144 0.666667 15.6667 0.666667H16.6667Z" fill="var(--fill-0, black)"/>
</g>
</svg>
