<svg preserveAspectRatio="none" width="100%" height="100%" overflow="visible" style="display: block;" viewBox="0 0 27 14.7279" fill="none" xmlns="http://www.w3.org/2000/svg">
<path id="Arrow 1" d="M1 6.36396C0.447715 6.36396 0 6.81168 0 7.36396C0 7.91625 0.447715 8.36396 1 8.36396V7.36396V6.36396ZM26.7071 8.07107C27.0976 7.68054 27.0976 7.04738 26.7071 6.65685L20.3431 0.292893C19.9526 -0.097631 19.3195 -0.097631 18.9289 0.292893C18.5384 0.683418 18.5384 1.31658 18.9289 1.70711L24.5858 7.36396L18.9289 13.0208C18.5384 13.4113 18.5384 14.0445 18.9289 14.435C19.3195 14.8256 19.9526 14.8256 20.3431 14.435L26.7071 8.07107ZM1 7.36396V8.36396H26V7.36396V6.36396H1V7.36396Z" fill="var(--stroke-0, #F00707)"/>
</svg>
